<?xml version="1.0" encoding="UTF-8" standalone="no"?>
<svg
   xmlns:dc="http://purl.org/dc/elements/1.1/"
   xmlns:cc="http://creativecommons.org/ns#"
   xmlns:rdf="http://www.w3.org/1999/02/22-rdf-syntax-ns#"
   xmlns:svg="http://www.w3.org/2000/svg"
   xmlns="http://www.w3.org/2000/svg"
   viewBox="0 0 453.54666 181.41333"
   height="181.41333"
   width="453.54666"
   xml:space="preserve"
   id="svg2"
   version="1.1"><metadata
     id="metadata8"><rdf:RDF><cc:Work
         rdf:about=""><dc:format>image/svg+xml</dc:format><dc:type
           rdf:resource="http://purl.org/dc/dcmitype/StillImage" /></cc:Work></rdf:RDF></metadata><defs
     id="defs6" /><g
     transform="matrix(1.3333333,0,0,-1.3333333,0,181.41333)"
     id="g10"><g
       transform="scale(0.1)"
       id="g12"><path
         id="path14"
         style="fill:#ffffff;fill-opacity:1;fill-rule:nonzero;stroke:none"
         d="m 2121.91,312.449 h 46.05 v 31.141 h -46.05 v 18.547 h 57.98 v 31.129 h -94.9 V 262.762 h 96.02 v 31.136 h -59.1 z M 2004.55,307 h 31.91 c -2.7,-8.551 -12.28,-15.719 -28.09,-15.719 -17.42,0 -30.95,12.668 -30.95,36.739 0,21.628 12.49,35.609 30.02,35.609 12.83,0 21.01,-7.129 23,-16.379 h 37.22 c -3.25,27.637 -27.7,47.516 -60.22,47.516 -39.72,0 -66.94,-26.289 -66.94,-66.746 0,-44.559 30.57,-66.75 59.41,-66.75 13.27,0 28.17,4.14 36.58,15.089 v -13.597 h 32.1 V 335.5 h -64.04 z m -129.85,5.449 h 46.05 v 31.141 h -46.05 v 18.547 h 57.98 v 31.129 h -94.9 V 262.762 h 96.02 v 31.136 h -59.1 z m -103.11,80.817 h -36.91 V 262.762 h 91.92 v 31.136 h -55.01 z m -103.1,0 h -36.91 V 262.762 h 91.92 v 31.136 h -55.01 z M 1549.55,292.41 c -19.02,0 -32.26,15.281 -32.26,35.61 0,20.32 13.24,35.609 32.26,35.609 18.46,0 31.7,-15.289 31.7,-35.609 0,-20.329 -13.24,-35.61 -31.7,-35.61 m 0,102.356 c -39.53,0 -69.17,-28.34 -69.17,-66.746 0,-38.411 29.64,-66.75 69.17,-66.75 39.15,0 68.61,28.339 68.61,66.75 0,38.406 -29.46,66.746 -68.61,66.746 M 1412.89,292.41 c -16.41,0 -30.39,11.93 -30.39,35.61 0,23.679 13.8,35.609 30.39,35.609 12.3,0 21.63,-8.207 22.93,-19.949 h 36.92 c -2.05,30.015 -26.48,51.086 -59.85,51.086 -37.29,0 -67.31,-23.5 -67.31,-66.746 0,-43.442 30.95,-66.75 67.31,-66.75 34.68,0 57.42,21.441 60.22,50.531 h -36.91 c -2.06,-11.93 -11.57,-19.391 -23.31,-19.391 m 1427.56,249.727 c 77.29,0 129.77,58.211 129.77,145.992 0,87.777 -52.48,146.937 -129.77,146.937 -77.28,0 -129.76,-59.16 -129.76,-146.937 0,-87.781 52.48,-145.992 129.76,-145.992 m -278.61,145.992 c 0,166.969 103.05,271.93 252.85,271.93 65.84,0 124.04,-24.813 155.53,-65.84 v 205.151 h 147.89 V 423.828 h -147.89 v 58.199 c -31.49,-41.031 -87.78,-65.839 -153.62,-65.839 -151.71,0 -254.76,104.96 -254.76,271.941 m -528.49,264.297 h 147.89 v -62.02 c 25.76,35.301 88.74,69.653 164.11,69.653 115.45,0 196.56,-76.332 196.56,-189.883 V 423.828 h -146.94 v 307.231 c 0,59.16 -34.35,99.238 -93.51,99.238 -72.51,0 -120.22,-56.301 -120.22,-169.84 V 423.828 H 2033.35 Z M 1735.83,525.918 c 69.65,0 115.45,48.66 118.32,124.988 l -104.96,-11.437 c -56.3,-5.731 -81.1,-29.582 -81.1,-62.024 0,-30.539 26.71,-51.527 67.74,-51.527 m -215.64,44.848 c 0,99.23 68.7,158.39 226.14,174.613 l 107.82,11.449 v 6.68 c 0,54.379 -38.17,84.91 -95.42,84.91 -52.48,0 -91.6,-29.582 -97.32,-83.012 h -141.22 c 12.41,112.59 109.73,194.653 240.45,194.653 140.26,0 241.4,-73.473 241.4,-213.731 v -322.5 h -147.89 v 59.149 c -24.81,-41.981 -83.01,-66.789 -148.85,-66.789 -113.55,0 -185.11,61.07 -185.11,154.578 m -169.93,528.604 h 147.89 V 423.828 h -147.89 z m -182.23,0 h 147.89 V 423.828 H 1168.03 Z M 868.449,525.918 c 69.649,0 115.449,48.66 118.309,124.988 L 881.809,639.469 c -56.301,-5.731 -81.102,-29.582 -81.102,-62.024 0,-30.539 26.711,-51.527 67.742,-51.527 m -215.64,44.848 c 0,99.23 68.699,158.39 226.14,174.613 l 107.809,11.449 v 6.68 c 0,54.379 -38.16,84.91 -95.41,84.91 -52.481,0 -91.602,-29.582 -97.321,-83.012 H 652.809 c 12.41,112.59 109.73,194.653 240.449,194.653 140.262,0 241.402,-73.473 241.402,-213.731 v -322.5 H 986.758 v 59.149 c -24.801,-41.981 -83.008,-66.789 -148.84,-66.789 -113.551,0 -185.109,61.07 -185.109,154.578 M 479.066,970.559 H 283.469 v 128.811 h 542.91 V 970.559 H 630.777 V 423.828 H 479.066 v 546.731" /></g></g></svg>